<?xml version="1.0" encoding="utf-8"?>
<!-- Generator: Adobe Illustrator 25.2.3, SVG Export Plug-In . SVG Version: 6.00 Build 0)  -->
<svg version="1.1" id="Layer_1" xmlns="http://www.w3.org/2000/svg" xmlns:xlink="http://www.w3.org/1999/xlink" x="0px" y="0px"
	 viewBox="0 0 1100 200" style="enable-background:new 0 0 1100 200;" xml:space="preserve">
<style type="text/css">
	.st0{opacity:0.498;fill:#FFF4B3;}
	.st1{opacity:0.498;fill:#FEDC7C;}
	.st2{opacity:0.498;fill:#FDAD4A;}
	.st3{opacity:0.498;fill:#FC7836;}
	.st4{opacity:0.498;fill:#EF3222;}
	.st5{opacity:0.498;fill:#C40524;}
</style>
<path class="st0" d="M28.52,92.21c0-7.4,6.07-13.43,13.47-13.43c7.37,0,13.43,6.03,13.43,13.43c0,7.4-6.07,13.43-13.43,13.43
	C34.59,105.65,28.52,99.61,28.52,92.21L28.52,92.21z"/>
<path class="st1" d="M69.4,92.21c0-10.13,8.3-18.39,18.43-18.39c10.08,0,18.39,8.26,18.39,18.39s-8.3,18.39-18.39,18.39
	C77.7,110.6,69.4,102.34,69.4,92.21L69.4,92.21z"/>
<path class="st2" d="M122.57,91.99c0-13.68,11.22-24.84,24.9-24.84c13.62,0,24.84,11.16,24.84,24.84
	c0,13.68-11.22,24.84-24.84,24.84C133.79,116.83,122.57,105.67,122.57,91.99L122.57,91.99z"/>
<path class="st3" d="M186.85,92.21c0-16.96,13.9-30.79,30.86-30.79c16.88,0,30.79,13.83,30.79,30.79S234.59,123,217.71,123
	C200.75,123,186.85,109.17,186.85,92.21L186.85,92.21z"/>
<path class="st4" d="M262.64,92.21c0-25.7,21.07-46.65,46.76-46.65c25.58,0,46.65,20.95,46.65,46.65s-21.07,46.65-46.65,46.65
	C283.71,138.86,262.64,117.91,262.64,92.21L262.64,92.21z"/>
<path class="st5" d="M373.4,92.21c0-32.01,26.24-58.1,58.24-58.1c31.86,0,58.1,26.09,58.1,58.1c0,32.01-26.24,58.1-58.1,58.1
	C399.64,150.31,373.4,124.22,373.4,92.21L373.4,92.21z"/>
</svg>
